
<svg xmlns="http://www.w3.org/2000/svg"   id='nft' viewBox="0 0 512 512"  preserveAspectRatio="xMidYMid meet"
>
<g  transform="translate(0.000000,512.000000) scale(0.100000,-0.100000)"
fill="#1584e8" stroke="none">
<path d="M2408 4581 c-31 -10 -382 -202 -780 -427 -786 -445 -813 -463 -875
-581 -66 -123 -63 -81 -63 -1013 0 -931 -3 -890 62 -1012 64 -121 89 -137 876
-582 440 -249 746 -416 783 -427 87 -27 223 -26 309 4 36 12 385 203 780 427
778 440 804 457 868 578 65 122 62 81 62 1012 0 932 3 890 -63 1013 -62 118
-90 137 -867 577 -393 222 -744 415 -780 427 -84 29 -227 31 -312 4z m-1167
-1261 c12 -7 123 -218 284 -538 l264 -527 0 513 1 513 25 24 c32 33 84 33 122
1 l28 -24 0 -722 0 -722 -28 -24 c-30 -26 -75 -31 -108 -14 -12 7 -123 218
-284 538 l-264 527 0 -513 -1 -513 -25 -24 c-33 -34 -87 -34 -120 0 l-25 24 0
721 0 721 25 24 c26 27 72 33 106 15z m1804 -13 c38 -32 39 -88 2 -125 l-27
-27 -315 -3 -315 -3 0 -249 0 -250 186 0 186 0 29 -29 c20 -20 29 -39 29 -61
0 -22 -9 -41 -29 -61 l-29 -29 -186 0 -186 0 0 -315 0 -316 -25 -24 c-26 -27
-72 -33 -107 -14 -48 26 -48 33 -48 759 0 722 1 732 47 759 12 7 144 10 390
11 l372 0 26 -23z m940 -2 c35 -34 34 -93 -1 -126 -24 -23 -33 -24 -170 -27
l-144 -3 0 -655 0 -655 -25 -24 c-26 -27 -72 -33 -107 -14 -47 25 -48 36 -48
714 l0 635 -125 0 c-151 0 -187 11 -204 63 -14 41 -3 78 31 101 20 14 70 16
396 16 l373 0 24 -25z"/>
</g>
</svg>
